<svg width="25" height="25" viewBox="0 0 25 25" fill="none" xmlns="http://www.w3.org/2000/svg">
<path d="M4.07227 10.4648V23.0625H1.02539V8.43359H3.86719L4.07227 10.4648ZM10.6641 13.5996V13.8047C10.6641 14.5729 10.5762 15.2858 10.4004 15.9434C10.2246 16.5944 9.96094 17.1641 9.60938 17.6523C9.26432 18.1406 8.83789 18.5215 8.33008 18.7949C7.82227 19.0618 7.23307 19.1953 6.5625 19.1953C5.92448 19.1953 5.37109 19.0618 4.90234 18.7949C4.4401 18.5215 4.04948 18.1439 3.73047 17.6621C3.41797 17.1738 3.16406 16.6172 2.96875 15.9922C2.77995 15.3607 2.63346 14.6868 2.5293 13.9707V13.5703C2.63346 12.8086 2.7832 12.1022 2.97852 11.4512C3.17383 10.8001 3.42773 10.237 3.74023 9.76172C4.05273 9.27995 4.4401 8.9056 4.90234 8.63867C5.36458 8.37174 5.91471 8.23828 6.55273 8.23828C7.2168 8.23828 7.80599 8.36523 8.32031 8.61914C8.83464 8.87305 9.26432 9.23763 9.60938 9.71289C9.96094 10.1816 10.2246 10.7448 10.4004 11.4023C10.5762 12.0599 10.6641 12.7923 10.6641 13.5996ZM7.60742 13.8047V13.5996C7.60742 13.1699 7.57487 12.776 7.50977 12.418C7.44466 12.0534 7.34049 11.7376 7.19727 11.4707C7.05404 11.1973 6.86523 10.9857 6.63086 10.8359C6.39648 10.6862 6.11003 10.6113 5.77148 10.6113C5.4069 10.6113 5.09766 10.6699 4.84375 10.7871C4.58984 10.9043 4.38477 11.0768 4.22852 11.3047C4.07227 11.526 3.95833 11.7995 3.88672 12.125C3.82161 12.4505 3.78581 12.8216 3.7793 13.2383V14.3125C3.78581 14.8008 3.85417 15.237 3.98438 15.6211C4.12109 15.9987 4.33268 16.2949 4.61914 16.5098C4.91211 16.7181 5.30273 16.8223 5.79102 16.8223C6.13607 16.8223 6.42253 16.7474 6.65039 16.5977C6.88477 16.4414 7.07031 16.2233 7.20703 15.9434C7.35026 15.6634 7.45117 15.3411 7.50977 14.9766C7.57487 14.612 7.60742 14.2214 7.60742 13.8047Z" fill="#2E2E2E"/>
<path d="M19.168 16.6367V4H22.2344V19H19.4805L19.168 16.6367ZM12.5859 13.8438V13.6387C12.5859 12.8379 12.6738 12.1087 12.8496 11.4512C13.0319 10.7871 13.2956 10.2174 13.6406 9.74219C13.9922 9.26042 14.4251 8.88932 14.9395 8.62891C15.4538 8.36849 16.043 8.23828 16.707 8.23828C17.319 8.23828 17.8529 8.375 18.3086 8.64844C18.7643 8.91536 19.1517 9.29297 19.4707 9.78125C19.7962 10.263 20.0599 10.8327 20.2617 11.4902C20.4635 12.1413 20.6165 12.8477 20.7207 13.6094V13.9609C20.623 14.6901 20.4701 15.3704 20.2617 16.002C20.0599 16.6335 19.7962 17.1901 19.4707 17.6719C19.1517 18.1471 18.7611 18.5215 18.2988 18.7949C17.8431 19.0618 17.306 19.1953 16.6875 19.1953C16.0234 19.1953 15.4342 19.0618 14.9199 18.7949C14.4121 18.528 13.9857 18.1536 13.6406 17.6719C13.2956 17.1901 13.0319 16.6237 12.8496 15.9727C12.6738 15.3216 12.5859 14.612 12.5859 13.8438ZM15.6328 13.6387V13.8438C15.6328 14.2604 15.6621 14.6478 15.7207 15.0059C15.7858 15.3639 15.89 15.6797 16.0332 15.9531C16.1764 16.2266 16.3652 16.4414 16.5996 16.5977C16.834 16.7474 17.1204 16.8223 17.459 16.8223C17.9147 16.8223 18.2891 16.7181 18.582 16.5098C18.875 16.2949 19.0964 15.9987 19.2461 15.6211C19.3958 15.2435 19.474 14.804 19.4805 14.3027V13.2773C19.4805 12.8607 19.4382 12.4863 19.3535 12.1543C19.2689 11.8223 19.1419 11.5423 18.9727 11.3145C18.8099 11.0866 18.6048 10.9141 18.3574 10.7969C18.11 10.6732 17.8171 10.6113 17.4785 10.6113C17.1465 10.6113 16.8633 10.6895 16.6289 10.8457C16.3945 10.9954 16.2025 11.207 16.0527 11.4805C15.9095 11.7539 15.8021 12.0762 15.7305 12.4473C15.6654 12.8118 15.6328 13.209 15.6328 13.6387Z" fill="#5EC8E5"/>
</svg>
